<svg width="22" height="22" viewBox="0 0 22 22" fill="none" xmlns="http://www.w3.org/2000/svg">
  <path d="M18.1328 18.8194C17.1555 19.7986 15.9914 20.5709 14.7099 21.0902C13.4283 21.6096 12.0555 21.8654 10.6732 21.8425C9.2989 21.8691 7.93359 21.6147 6.66077 21.0949C5.38795 20.5751 4.23437 19.8009 3.27055 18.8194C2.28423 17.8578 1.50607 16.7032 0.984471 15.4275C0.462875 14.1518 0.209006 12.7822 0.238656 11.404C0.238656 8.3861 1.24929 5.87202 3.27055 3.86179C4.23503 2.88178 5.38891 2.10894 6.66169 1.59049C7.93448 1.07205 9.29945 0.818882 10.6732 0.846454C12.055 0.822527 13.4275 1.07714 14.709 1.59516C15.9905 2.11318 17.1548 2.88401 18.1328 3.86179C20.2006 5.87202 21.2345 8.3861 21.2345 11.404C21.2613 12.7881 20.9992 14.1626 20.4651 15.4395C19.931 16.7164 19.1366 17.8676 18.1328 18.8194V18.8194Z" fill="#C8C8C8" />
  <path d="M10.7361 4.14441L6.53613 11.3016L10.7361 9.34025V4.14441Z" fill="#8B8B8B" />
  <path d="M10.7361 9.34027L6.53613 11.3017L10.7361 13.8498V9.34027Z" fill="#393939" />
  <path d="M10.7363 4.14441V9.34025L14.9323 11.3016L10.7363 4.14441Z" fill="#343434" />
  <path d="M10.7363 9.34027V13.8498L14.9323 11.3017L10.7363 9.34027Z" fill="#161616" />
  <path d="M6.53613 12.1185L10.7361 18.1976V14.6688L6.53613 12.1185Z" fill="#8B8B8B" />
  <path d="M14.9363 12.1185L10.7363 14.6688V18.1976L14.9363 12.1185Z" fill="#343434" />
</svg>